HIERARCHY
ROOT Hips
{
  OFFSET 90.7885 88.945 -76.2838
  CHANNELS 6 Xposition Yposition Zposition Zrotation Xrotation Yrotation
  JOINT LeftUpLeg
  {
    OFFSET 8.64259 1.95398 -2.38835
    CHANNELS 3 Zrotation Xrotation Yrotation
    JOINT LeftLeg
    {
      OFFSET 43.7702 0 0
      CHANNELS 3 Zrotation Xrotation Yrotation
      JOINT LeftFoot
      {
        OFFSET 40.6238 0 0
        CHANNELS 3 Zrotation Xrotation Yrotation
        JOINT LeftToeBase
        {
          OFFSET 12.7242 0 0
          CHANNELS 3 Zrotation Xrotation Yrotation
          End Site
          {
            OFFSET 0 0 0
          }
        }
      }
    }
  }
  JOINT RightUpLeg
  {
    OFFSET -8.2249 1.95398 -2.59336
    CHANNELS 3 Zrotation Xrotation Yrotation
    JOINT RightLeg
    {
      OFFSET 43.5653 0 0
      CHANNELS 3 Zrotation Xrotation Yrotation
      JOINT RightFoot
      {
        OFFSET 40.6238 0 0
        CHANNELS 3 Zrotation Xrotation Yrotation
        JOINT RightToeBase
        {
          OFFSET 12.7242 0 0
          CHANNELS 3 Zrotation Xrotation Yrotation
          End Site
          {
            OFFSET 0 0 0
          }
        }
      }
    }
  }
  JOINT Spine
  {
    OFFSET 0.165834 0.87714 6.61349
    CHANNELS 3 Zrotation Xrotation Yrotation
    JOINT Spine1
    {
      OFFSET 7.38963 1.71661e-005 0
      CHANNELS 3 Zrotation Xrotation Yrotation
      JOINT Spine2
      {
        OFFSET 11.9445 1.14441e-005 0
        CHANNELS 3 Zrotation Xrotation Yrotation
        JOINT Spine3
        {
          OFFSET 14.7254 4.19617e-005 0
          CHANNELS 3 Zrotation Xrotation Yrotation
          JOINT Spine4
          {
            OFFSET 10.9679 0 0
            CHANNELS 3 Zrotation Xrotation Yrotation
            JOINT RightShoulder
            {
              OFFSET 2.46616 -1.6653 3.69651
              CHANNELS 3 Zrotation Xrotation Yrotation
              JOINT RightArm
              {
                OFFSET 13.0012 0 0
                CHANNELS 3 Zrotation Xrotation Yrotation
                JOINT RightForeArm
                {
                  OFFSET 28.7848 1.52588e-005 0
                  CHANNELS 3 Zrotation Xrotation Yrotation
                  JOINT RightHand
                  {
                    OFFSET 26.5688 1.52588e-005 0
                    CHANNELS 3 Zrotation Xrotation Yrotation
                    End Site
                    {
                      OFFSET 0 0 0
                    }
                  }
                }
              }
            }
            JOINT LeftShoulder
            {
              OFFSET 2.38034 -1.29275 -3.7523
              CHANNELS 3 Zrotation Xrotation Yrotation
              JOINT LeftArm
              {
                OFFSET 16.3182 6.10352e-005 0
                CHANNELS 3 Zrotation Xrotation Yrotation
                JOINT LeftForeArm
                {
                  OFFSET 27.0901 0 0
                  CHANNELS 3 Zrotation Xrotation Yrotation
                  JOINT LeftHand
                  {
                    OFFSET 24.5451 1.52588e-005 0
                    CHANNELS 3 Zrotation Xrotation Yrotation
                    End Site
                    {
                      OFFSET 0 0 0
                    }
                  }
                }
              }
            }
            JOINT Neck
            {
              OFFSET 5.0226 -0.0266342 0
              CHANNELS 3 Zrotation Xrotation Yrotation
              JOINT Head
              {
                OFFSET 6.69363 2.86102e-005 0
                CHANNELS 3 Zrotation Xrotation Yrotation
                End Site
                {
                  OFFSET 0 0 0
                }
              }
            }
          }
        }
      }
    }
  }
}
MOTION
Frames:	18
Frame Time:	0.0416667
-46.5783 52.59 36.48 61.6945 43.5367 107.292 -35.9066 55.8935 -17.8256 -130.902 51.5108 11.482 58.3333 -0.934999 12.4427 17.9983 27.4435 -30.1967 43.9394 60.1741 -169.568 -124.076 -21.3333 -2.89738 94.0821 -18.7615 -5.49006 4.86579 -4.28316 10.0159 0.509821 12.8121 -90.0023 1.24916 1.01665 0.0284734 -10.4214 1.01691 -0.0163082 -32.9595 0.961091 0.332732 -12.9468 0.961083 0.332731 89.9389 -17.2487 -112.96 14.4325 18.8506 -45.9609 0.940338 0.0302665 -19.1233 -14.4443 2.53849 -25.5983 -90.732 -27.4722 70.9696 4.77042 -8.29146 -77.1225 6.51946 5.5051 -5.26829 -10.8336 1.105 -20.4254 17.3233 -2.38662 -3.41884 -8.50039 -1.30751 -0.343751 
-46.7296 52.441 36.6942 61.2808 43.8277 106.972 -36.6916 55.5911 -17.9085 -130.746 51.1748 11.3006 59.0227 -0.480524 12.5594 17.1194 26.9996 -29.1464 44.3698 61.8416 -168.87 -123.412 -19.8309 -2.74952 97.9274 -19.9514 -2.94537 6.89442 -3.89489 9.43788 0.46135 12.6608 -90.0118 1.55189 0.916413 0.00314449 -10.1187 0.915669 -0.0372088 -32.6563 0.873107 0.278442 -12.6437 0.873095 0.278438 89.6028 -17.704 -113.497 12.0306 17.9216 -45.339 1.8574 -0.562209 -17.9757 -14.7763 2.4359 -24.6749 -91.3201 -28.8336 70.3593 4.6352 -7.84451 -77.0978 6.23599 5.36086 -4.53434 -10.7693 1.04728 -19.8306 20.1203 -2.26231 -2.48551 -10.6119 -1.32412 -1.10363 
-47.0818 52.4964 36.9103 60.2606 43.8692 107.136 -38.3105 55.3612 -17.5466 -130.523 51.8342 11.3869 60.3836 0.33493 13.9957 18.7469 24.8257 -27.7412 45.8239 64.1103 -168.867 -121.545 -15.967 -2.20452 105.447 -21.1554 3.31356 6.6275 -3.76168 9.24381 0.394694 12.3754 -89.9436 2.12228 0.81001 0.127061 -9.54841 0.814818 0.0912792 -32.0853 0.734364 0.364627 -12.0726 0.734368 0.364643 89.6455 -18.2221 -113.09 11.6956 15.6317 -46.3533 1.92503 -1.49009 -16.5335 -14.0273 2.20576 -24.49 -91.5443 -28.1481 69.6551 4.04976 -6.40082 -75.8224 5.7678 5.28498 -3.90838 -13.8866 1.68815 -21.8756 22.8119 -2.6024 -2.95925 -12.6182 -1.4782 -0.336056 
-47.4203 52.6978 37.1543 59.6539 44.3303 107.262 -39.5976 54.5633 -16.9086 -130.464 53.4993 11.7642 60.0888 0.19842 16.1358 18.8481 24.3705 -27.2945 45.2687 64.0592 -168.012 -120.748 -14.2868 -2.14288 107.065 -21.7225 3.82219 6.07698 -4.76701 10.726 0.371233 12.1301 -89.9421 2.6132 0.764126 0.124587 -9.05754 0.768836 0.0908311 -31.5942 0.691339 0.348479 -11.5816 0.691323 0.348477 89.0422 -19.5947 -113.702 8.6352 14.367 -45.9327 1.46663 -3.11703 -14.7201 -16.1216 1.89217 -20.3864 -91.9824 -28.2339 68.8451 3.03488 -5.29367 -75.5494 5.59471 7.44872 -2.91128 -15.2233 1.89802 -21.8714 25.3026 -3.06244 -3.48859 -13.504 -1.80247 1.12863 
-47.5812 53.2285 37.1992 58.9989 44.2859 108.397 -39.6716 55.2789 -16.5831 -128.314 52.8137 10.6821 60.4275 0.459153 13.6772 19.9623 25.8404 -29.6126 45.9564 63.816 -168.473 -119.778 -15.9349 -1.93842 105.536 -22.2043 1.21172 5.04507 -4.7698 10.7246 0.448233 11.8523 -90.0514 3.16933 0.875155 -0.0944515 -8.50133 0.870152 -0.132881 -31.0388 0.863071 0.172963 -11.0261 0.86307 0.172953 88.1736 -20.623 -115.084 5.34944 14.1756 -44.2681 1.29207 -8.44612 -13.7514 -13.9192 1.09078 -18.928 -92.6144 -28.9279 67.9258 1.36878 -4.47467 -74.6968 6.27704 10.5307 -3.90798 -16.1845 1.99843 -21.4494 26.2159 -3.30932 -3.29025 -13.1622 -2.12709 1.62439 
-47.8615 54.6953 37.3128 57.2286 44.1485 109.613 -41.0465 55.78 -15.4723 -125.045 54.0651 9.21986 60.5167 0.613969 14.0392 17.3799 27.1069 -29.4302 45.9616 64.3194 -168.603 -117.244 -13.9777 -1.31023 104.937 -20.1765 4.95322 3.90049 -2.57334 7.59115 0.425627 11.5748 -90.0781 3.72454 0.819035 -0.152628 -7.94618 0.811538 -0.188531 -30.4834 0.827051 0.100605 -10.4707 0.827045 0.100593 87.9687 -20.7987 -115.44 3.85186 13.8501 -43.203 1.60171 -9.26512 -13.6456 -11.517 0.846946 -20.2092 -92.8311 -29.669 67.827 1.2526 -4.13415 -74.5806 6.56313 13.2088 -4.93018 -16.5732 2.07996 -21.642 27.6845 -3.19336 -3.29965 -13.0723 -1.95118 1.49991 
-48.1321 57.1522 37.5372 54.5716 43.5751 111.555 -42.7035 57.6927 -14.7406 -118.312 53.2392 5.71419 59.963 0.353151 11.7837 17.7711 26.6196 -29.1367 47.4342 65.1122 -169.065 -113.126 -14.706 -0.117591 102.587 -19.8712 3.07592 4.50743 -2.88942 8.01812 0.412114 11.2657 -90.048 4.34262 0.803939 -0.100595 -7.32807 0.798722 -0.135891 -29.8652 0.797007 0.145682 -9.85255 0.797 0.14569 88.1463 -20.9545 -114.951 4.69714 14.033 -43.2196 1.55117 -10.2852 -15.0308 -13.7048 0.981684 -19.1833 -92.7859 -29.054 67.6534 1.89735 -4.15626 -73.9905 6.60616 12.8424 -5.7877 -17.0239 2.25874 -22.4928 29.4877 -3.38929 -3.75735 -12.4467 -1.89437 1.58204 
-48.4774 60.2547 37.5481 50.7494 42.8501 113.77 -46.0519 59.9862 -13.4806 -109.479 53.5305 0.991307 60.1783 0.472109 10.3798 16.6021 24.5395 -26.0839 47.5704 66.4285 -168.582 -107.54 -14.7538 1.46295 100.946 -19.5063 2.12291 5.13949 -3.76977 9.27009 0.322335 10.8556 -90.0033 5.16268 0.642782 -0.0190016 -6.50807 0.641332 -0.0472853 -29.0445 0.618773 0.17507 -9.03181 0.618776 0.175061 87.9169 -21.6721 -115.046 3.16805 13.622 -42.4743 2.49639 -10.8224 -13.9977 -13.9493 1.16252 -20.9582 -92.5004 -30.0068 68.587 3.40048 -4.15242 -74.6824 6.25333 13.7136 -6.27894 -16.2835 1.99846 -21.3754 31.3509 -3.14175 -3.03555 -11.8108 -1.8281 1.00127 
-48.7808 64.2128 37.6992 46.3116 41.7532 116.267 -50.4694 62.7352 -11.4631 -97.8644 56.5397 -5.1714 60.2602 0.579785 11.7928 16.2051 20.8006 -21.7925 49.4477 68.015 -169.385 -99.9753 -15.984 3.7083 97.6431 -18.8771 0.0799694 6.51116 -3.86447 9.39612 0.232761 10.4422 -89.9678 5.98936 0.478518 0.0500714 -5.6815 0.480258 0.0289473 -28.2173 0.441348 0.191574 -8.20465 0.441346 0.191581 87.7926 -21.5827 -115.372 0.537746 12.5803 -41.0697 2.24067 -10.3732 -14.9936 -11.6101 0.97956 -22.1583 -92.1834 -30.1311 69.2284 3.98468 -4.06159 -75.086 5.80507 10.8073 -6.27037 -15.8766 1.95566 -21.5592 35.1707 -2.77169 -2.08542 -11.7408 -1.79935 1.18177 
-49.1057 68.7989 37.7571 41.6295 41.0428 118.935 -58.1952 66.3391 -7.48356 -84.5874 52.6651 -11.4821 61.3211 1.47084 9.3116 17.4075 20.9109 -22.5531 50.8271 70.5531 -170.062 -91.7161 -16.4966 6.25096 92.9047 -16.9232 -1.43668 7.64751 -3.51579 8.85222 0.133774 9.99532 -89.954 6.88316 0.286901 0.0785851 -4.78777 0.29007 0.0658633 -27.3231 0.250026 0.161174 -7.31043 0.250017 0.161174 87.6719 -21.7758 -115.526 -1.67426 11.4454 -38.8682 2.44012 -9.45733 -17.1974 -10.8528 1.03385 -23.3859 -92.3516 -29.7155 68.7497 3.21842 -3.7799 -73.7362 6.58371 10.1476 -8.25923 -18.1356 2.5876 -23.448 38.8815 -2.84 -1.31638 -11.8507 -2.12999 0.922588 
-49.1025 73.4254 37.6773 38.0535 40.0362 120.701 -69.0083 70.0411 0.137906 -70.9782 50.2746 -17.3889 61.6489 1.63768 9.31394 21.7039 18.3945 -21.9292 56.4429 73.4504 -174.328 -82.6474 -14.7116 8.60312 89.4117 -15.1442 -1.54125 8.14981 -3.65868 9.06917 0.116728 9.54098 -89.9165 7.79171 0.269419 0.150531 -3.87923 0.275792 0.138521 -26.4145 0.211736 0.224548 -6.40182 0.211725 0.224542 87.7636 -22.1565 -115.106 -1.27777 10.8533 -35.9148 1.11786 -10.6338 -20.9406 -11.0955 1.04929 -23.9518 -92.4029 -30.2061 68.8518 3.80617 -2.96538 -71.8147 6.66759 6.05217 -11.9542 -17.067 2.58955 -24.9343 41.4101 -3.04121 -1.17467 -11.9449 -2.42065 1.66606 
-48.9933 78.0086 37.4957 35.3094 39.1817 122.088 -84.4488 73.2147 12.3602 -58.6202 46.9811 -21.2625 61.4285 1.29099 9.43354 23.2087 16.6244 -20.5585 66.8406 76.4807 176.699 -73.3238 -13.9706 10.6203 84.8199 -12.9835 -2.63852 8.50343 -3.23172 8.40587 0.108504 9.12099 -89.897 8.63168 0.262112 0.186841 -3.03925 0.270089 0.175119 -25.5744 0.19384 0.256973 -5.56178 0.19385 0.256991 87.6862 -22.8348 -114.892 -1.09135 9.24537 -32.9386 2.51891 -3.40359 -25.3534 -12.6096 1.81329 -24.12 -92.5965 -30.922 68.7777 6.11155 -0.785705 -68.8531 5.06439 -0.0837153 -16.2957 -17.9467 2.8659 -25.7463 43.8922 -2.80282 -0.251577 -12.222 -2.60304 1.13078 
-48.9244 82.3516 37.1735 33.4009 38.6664 122.785 -106.657 75.1853 30.5648 -48.5769 41.7028 -21.9216 60.4374 0.602735 7.90295 23.3815 15.5131 -19.2101 85.6172 78.8969 159.387 -63.8366 -11.5225 11.8893 80.6198 -10.871 -3.40285 8.87075 -3.63352 9.0188 0.0636464 8.73009 -89.8643 9.41337 0.188008 0.254703 -2.25758 0.199038 0.246186 -24.7926 0.102757 0.299426 -4.77993 0.102768 0.299429 87.722 -23.1468 -114.641 1.08568 8.57566 -30.2777 1.32068 -4.17114 -28.6083 -8.12405 1.35383 -28.8846 -92.4559 -31.6179 69.3122 4.6001 1.21547 -65.8459 4.95124 -2.3873 -20.9147 -18.3216 2.91045 -25.5735 45.5329 -2.40087 0.376445 -11.9324 -2.50781 0.578794 
-48.4866 86.1256 36.8462 33.4799 38.3696 122.93 -132.288 74.7997 53.0544 -41.2106 36.9183 -19.8859 59.7155 0.167408 6.40478 25.1897 12.1391 -15.7582 115.291 78.054 131.543 -54.7315 -8.59273 12.6798 76.6826 -8.63354 -2.88588 9.11168 -3.50926 8.8221 0.0555834 8.42572 -89.9088 10.0224 0.152347 0.168779 -1.64855 0.159649 0.161911 -24.1837 0.0945735 0.20676 -4.17103 0.0945791 0.206761 87.7556 -22.5601 -114.896 4.92785 7.77612 -27.6965 1.41069 -3.61366 -32.5513 -6.91433 1.17688 -29.2892 -92.6255 -32.7439 69.4351 1.27171 3.2443 -61.2309 5.49467 -3.52052 -25.816 -16.1018 2.30546 -24.0164 46.8088 -1.84362 1.2611 -12.1411 -2.43547 0.097312 
-47.8353 88.9149 36.361 35.366 38.333 122.147 -151.094 71.478 69.8685 -36.0883 33.3444 -17.0975 59.9125 0.158384 5.23759 25.227 9.36791 -12.1001 135.993 74.1025 112.675 -47.1856 -6.93555 12.9716 73.5439 -6.9156 -3.02753 9.20456 -3.48646 8.7846 0.0841859 8.21606 -89.9342 10.4417 0.197901 0.113305 -1.22929 0.202702 0.104481 -23.7645 0.154699 0.167536 -3.75182 0.154709 0.167555 88.4344 -22.3616 -113.522 10.4629 6.12544 -27.2306 0.861705 -3.11709 -35.0075 -9.35774 1.83719 -30.5462 -92.8574 -34.4498 69.6594 -1.84271 4.29401 -56.9017 9.21572 1.73845 -29.4025 -17.0718 2.50364 -24.2819 47.4767 -1.36665 1.7913 -12.522 -2.27348 -0.143826 
-47.0973 91.052 35.6652 38.8636 38.8964 119.829 -163.332 65.9856 79.9147 -32.4356 30.2276 -13.6762 60.949 0.645245 4.66654 25.5321 6.96676 -8.98374 148.669 68.7205 101.638 -41.3649 -5.02043 12.2054 71.551 -5.78634 -2.44652 9.08702 -3.19173 8.325 0.0692876 8.08742 -89.8899 10.6988 0.188754 0.201721 -0.972196 0.197463 0.193209 -23.5073 0.119411 0.249126 -3.49463 0.119403 0.249119 88.332 -23.4318 -113.171 14.0302 4.56846 -25.1306 -0.264592 -4.3429 -38.6516 -10.6057 1.85113 -28.5956 -92.7583 -36.7088 70.635 -2.45479 6.43131 -53.2069 8.49667 -0.127807 -31.6275 -15.6295 2.29661 -24.7065 46.6439 -0.941245 2.13931 -12.4013 -2.03665 -0.341648 
-46.0609 92.543 34.8637 43.5356 40.0325 116.9 -169.299 59.274 84.685 -29.5129 28.3204 -11.0063 62.131 1.15927 4.31248 25.8301 5.16017 -6.62522 156.111 62.5384 95.7193 -37.6494 -3.3986 10.8552 70.6728 -5.27399 -2.18258 10.3198 -2.96813 7.93686 0.00644194 8.00003 -89.8933 10.8737 0.0621981 0.20638 -0.797237 0.071223 0.203445 -23.3322 -0.00271086 0.215529 -3.31961 -0.00270601 0.215532 88.5001 -23.883 -112.576 17.5382 2.43295 -23.5554 -1.53116 -6.55484 -40.5148 -10.7985 1.7041 -28.5423 -92.7488 -40.4996 71.9133 -1.71392 8.51757 -48.9262 9.00327 0.182471 -33.915 -16.4127 2.26356 -23.3041 45.4317 -0.246461 2.96323 -12.3128 -1.75063 -0.996245 
-44.6031 93.475 34.2493 48.8223 40.4617 114.513 -172.038 53.1467 88.5987 -27.988 27.0473 -9.31713 63.9147 1.95746 3.71405 27.9586 3.7193 -5.20296 160.82 56.3292 94.1294 -35.2329 -1.5351 9.30365 70.4109 -5.18179 -2.5114 11.0863 -2.97053 7.91018 0.0374342 7.881 -89.9407 11.1118 0.102107 0.108208 -0.559106 0.106782 0.103592 -23.0943 0.0648796 0.13389 -3.08161 0.0648648 0.133886 88.4048 -24.3209 -112.554 21.2566 0.915473 -20.8226 -2.1621 -7.29998 -43.9265 -10.5751 1.54867 -27.8878 -92.2343 -41.8445 73.1719 -2.73906 11.1128 -43.6057 7.96835 -2.1629 -36.4797 -14.749 1.87327 -22.3284 44.0315 -0.0760148 2.68814 -12.3323 -1.39175 -1.13043 
